<svg xmlns="http://www.w3.org/2000/svg" width="1200" height="700" viewBox="0 0 1200 700" fill="none">
  <defs>
    <linearGradient id="bg" x1="0" y1="0" x2="1" y2="1">
      <stop offset="0%" stop-color="#11100e"/>
      <stop offset="100%" stop-color="#1a1612"/>
    </linearGradient>
    <linearGradient id="gold" x1="0" y1="0" x2="1" y2="0">
      <stop offset="0%" stop-color="#c9a227"/>
      <stop offset="100%" stop-color="#dbb84a"/>
    </linearGradient>
  </defs>

  <rect width="1200" height="700" rx="28" fill="url(#bg)"/>
  <rect x="60" y="60" width="1080" height="580" rx="24" fill="#252019" stroke="#4a4035" stroke-width="2"/>

  <g>
    <rect x="90" y="100" width="320" height="80" rx="16" fill="#1f1a14" stroke="#4a4035"/>
    <text x="120" y="150" font-family="Inter, system-ui, sans-serif" font-size="28" fill="url(#gold)">AEON</text>
  </g>

  <g>
    <rect x="90" y="220" width="520" height="340" rx="24" fill="#1a1612" stroke="#4a4035"/>
    <text x="140" y="280" font-family="Inter, system-ui, sans-serif" font-size="24" fill="#b5a68a">TIMER</text>
    <text x="140" y="360" font-family="JetBrains Mono, monospace" font-size="56" fill="url(#gold)">25:00</text>
    <rect x="140" y="400" width="320" height="14" rx="7" fill="#2d271f"/>
    <rect x="140" y="400" width="190" height="14" rx="7" fill="#c9a227"/>
    <text x="140" y="450" font-family="Inter, system-ui, sans-serif" font-size="16" fill="#7a6f5d">Focus Mode • Anti-drift</text>
  </g>

  <g>
    <rect x="650" y="220" width="460" height="340" rx="24" fill="#1a1612" stroke="#4a4035"/>
    <text x="700" y="280" font-family="Inter, system-ui, sans-serif" font-size="24" fill="#b5a68a">COMMANDS</text>
    <rect x="700" y="320" width="160" height="44" rx="12" fill="#2d271f" stroke="#4a4035"/>
    <rect x="880" y="320" width="160" height="44" rx="12" fill="#2d271f" stroke="#4a4035"/>
    <rect x="700" y="380" width="160" height="44" rx="12" fill="#c9a227"/>
    <rect x="880" y="380" width="160" height="44" rx="12" fill="#2d271f" stroke="#4a4035"/>
    <text x="715" y="350" font-family="Inter, system-ui, sans-serif" font-size="14" fill="#b5a68a">RESET</text>
    <text x="895" y="350" font-family="Inter, system-ui, sans-serif" font-size="14" fill="#b5a68a">SKIP</text>
    <text x="720" y="410" font-family="Inter, system-ui, sans-serif" font-size="14" fill="#0f0d0b">START</text>
    <text x="895" y="410" font-family="Inter, system-ui, sans-serif" font-size="14" fill="#b5a68a">PAUSE</text>
  </g>

  <text x="90" y="610" font-family="Inter, system-ui, sans-serif" font-size="16" fill="#7a6f5d">Preview placeholder • Replace with real screenshot</text>
</svg>
