<svg xmlns="http://www.w3.org/2000/svg" viewBox="0 0 100 100" fill="none">
  <!-- Shield outline -->
  <path d="M50 5 L90 20 L90 55 C90 75 70 90 50 95 C30 90 10 75 10 55 L10 20 Z"
        stroke="#c9a227" stroke-width="3" fill="none" opacity="0.8"/>

  <!-- Inner shield -->
  <path d="M50 12 L83 24 L83 52 C83 68 66 81 50 86 C34 81 17 68 17 52 L17 24 Z"
        fill="#252019" opacity="0.9"/>

  <!-- Flame icon -->
  <g transform="translate(50, 55) scale(0.6)">
    <path d="M0 -35 C15 -20 20 -5 20 10 C20 25 10 35 0 35 C-10 35 -20 25 -20 10 C-20 -5 -15 -20 0 -35 Z
             M0 -20 C8 -10 10 0 10 8 C10 18 5 25 0 25 C-5 25 -10 18 -10 8 C-10 0 -8 -10 0 -20 Z"
          fill="#c9a227" opacity="0.9"/>
    <path d="M0 -15 C6 -8 8 0 8 5 C8 12 4 18 0 18 C-4 18 -8 12 -8 5 C-8 0 -6 -8 0 -15 Z"
          fill="#dbb84a" opacity="0.8"/>
  </g>

  <!-- Top crown decoration -->
  <g transform="translate(50, 8)">
    <path d="M-8 0 L0 -5 L8 0" stroke="#c9a227" stroke-width="2" fill="none"/>
    <circle cx="0" cy="-5" r="2" fill="#c9a227"/>
  </g>

  <!-- Side decorations -->
  <circle cx="20" cy="40" r="3" fill="#c9a227" opacity="0.6"/>
  <circle cx="80" cy="40" r="3" fill="#c9a227" opacity="0.6"/>
</svg>
